<svg width="160" height="160" viewBox="0 0 160 160" fill="none" xmlns="http://www.w3.org/2000/svg">
  <defs>
    <clipPath id="clip">
      <circle cx="80" cy="80" r="80" />
    </clipPath>
    <linearGradient id="sky" x1="80" y1="0" x2="80" y2="160" gradientUnits="userSpaceOnUse">
      <stop stop-color="#74A7F1" />
      <stop offset="1" stop-color="#3A4F7A" />
    </linearGradient>
    <filter id="blur" x="50" y="-10" width="110" height="180" filterUnits="userSpaceOnUse">
      <feGaussianBlur stdDeviation="4" />
    </filter>
  </defs>
  <g clip-path="url(#clip)">
    <rect width="160" height="160" fill="url(#sky)" />
    <circle cx="134" cy="18" r="7" fill="#F55F84" opacity="0.85" />
    <g filter="url(#blur)" opacity="0.85">
      <rect x="108" y="14" width="13" height="118" rx="6.5" fill="#A2252B" />
      <rect x="108" y="24" width="13" height="118" rx="6.5" fill="#CC4F47" />
      <path d="M114 20C94 41 86 55 72 84" stroke="#7D9DE3" stroke-width="4" stroke-linecap="round" />
      <path d="M118 18C132 42 140 57 154 92" stroke="#7D9DE3" stroke-width="4" stroke-linecap="round" />
    </g>
    <ellipse cx="122" cy="141" rx="58" ry="22" fill="#1D2031" opacity="0.55" />
    <ellipse cx="18" cy="145" rx="40" ry="26" fill="#232236" opacity="0.62" />
    <circle cx="121" cy="129" r="5" fill="#FFB43A" opacity="0.9" />
    <circle cx="129" cy="123" r="3" fill="#FFB43A" opacity="0.72" />
    <circle cx="139" cy="126" r="4" fill="#FFB43A" opacity="0.84" />
    <circle cx="147" cy="119" r="2.5" fill="#F0784C" opacity="0.78" />
    <circle cx="106" cy="132" r="3.5" fill="#F0784C" opacity="0.66" />
    <path d="M8 160C12 123 36 90 56 76C69 68 85 66 103 77C88 87 82 98 78 113C72 130 52 153 8 160Z" fill="#121214" />
    <path d="M76 114C87 114 99 121 101 160H25C27 148 39 130 55 120C63 115 70 114 76 114Z" fill="#161215" />
    <path d="M43 140C56 131 68 128 86 130" stroke="#24191E" stroke-width="6" stroke-linecap="round" />
    <ellipse cx="68" cy="68" rx="22" ry="28" fill="#9D603C" />
    <path d="M47 64C47 48 57 34 68 34C80 34 92 47 90 65C81 67 66 68 47 64Z" fill="#151215" />
    <path d="M44 67C43 48 54 28 71 28C88 28 96 44 94 65L86 59L53 61L44 67Z" fill="#20191F" />
    <rect x="50" y="58" width="15" height="10" rx="4" stroke="#251B22" stroke-width="2.5" />
    <rect x="66" y="58" width="15" height="10" rx="4" stroke="#251B22" stroke-width="2.5" />
    <path d="M65 63H66" stroke="#251B22" stroke-width="2.5" stroke-linecap="round" />
    <path d="M58 78C61 81 69 81 74 77" stroke="#6D3324" stroke-width="2.4" stroke-linecap="round" />
    <path d="M71 65C72 69 72 71 69 73" stroke="#82452C" stroke-width="2" stroke-linecap="round" />
    <path d="M87 127L108 136" stroke="#8D6660" stroke-width="6" stroke-linecap="round" />
    <rect x="100" y="126" width="13" height="19" rx="3" transform="rotate(18 100 126)" fill="#827A83" />
    <rect x="102" y="129" width="9" height="13" rx="2.2" transform="rotate(18 102 129)" fill="#56505B" />
  </g>
</svg>
